<?xml version="1.0" encoding="UTF-8"?>
<svg id="Layer_2" data-name="Layer 2" xmlns="http://www.w3.org/2000/svg" viewBox="0 0 227.8 171.35">
  <defs>
    <style>
      .cls-1 {
        fill: #039a19;
      }

      .cls-2 {
        fill: #fe672b;
      }

      .cls-3 {
        fill: #fe6325;
      }

      .cls-4 {
        fill: #fe6223;
      }

      .cls-5 {
        fill: #fe6020;
      }

      .cls-6 {
        fill: #fec003;
      }

      .cls-7 {
        fill: #fec001;
      }

      .cls-8 {
        fill: #fec002;
      }

      .cls-9 {
        fill: #0f9f24;
      }

      .cls-10 {
        fill: #079c1c;
      }

      .cls-11 {
        fill: #069c1c;
      }

      .cls-12 {
        fill: #059b1a;
      }

      .cls-13 {
        fill: #0d9e22;
      }

      .cls-14 {
        fill: #444;
      }

      .cls-15 {
        fill: #069b1b;
      }
    </style>
  </defs>
  <g id="Layer_1-2" data-name="Layer 1">
    <g>
      <path class="cls-5" d="M138.23,106.6c.15-.89,.31-1.79,.46-2.68,.99-5.69-.82-10.41-5.06-14.21-3.39-3.04-7.4-4.95-11.89-6.23,.05,.38,.09,.64,.13,.89,.39,2.29-.11,4.4-1.84,5.92-1.64,1.43-3.42,2.84-5.37,3.72-3.7,1.67-7.58,2.94-11.37,4.42-2.26,.89-4.58,1.71-6.71,2.85-5.44,2.91-6.88,7.53-4.19,13.12,.64,1.32,1.51,2.52,2.25,3.73-5.52-.31-10.78-5.75-12.53-13.19-2.94,1.43-5.32,3.38-6.77,6.32-1.47,2.98-1.31,6.1-.59,9.39-.41-.2-.67-.29-.89-.44-8.68-5.84-15.1-13.47-18.54-23.45-.32-.93-.52-1.93-.63-2.92-.26-2.38,1.06-3.73,3.45-3.86,5.1-.27,10.22-.44,15.29-1.01,9.61-1.08,19.08-3.03,28.41-5.58,8.16-2.23,16.24-4.75,24.43-6.86,10.26-2.64,20.71-4.33,31.23-5.47,3.93-.43,7.87-.82,11.81-1.06,.98-.06,2,.55,3,.84,.53,.16,1.11,.48,1.6,.4,2.44-.42,4.86-.92,7.27-1.48,.47-.11,.97-.5,1.25-.9,1.03-1.5,2.39-2.46,4.15-2.81,11.2-2.22,22.4-4.44,33.6-6.64,3.33-.65,6.56,1.41,7.23,4.57,.71,3.35-1.22,6.44-4.72,7.16-8.33,1.71-16.67,3.33-25.01,4.97-2.98,.59-5.95,1.16-8.93,1.74-1.71,.33-3.23-.13-4.67-1.05-.34-.22-.81-.48-1.16-.41-2.9,.51-5.79,1.1-8.72,1.67-1,15.11-8.24,26.81-19.38,36.41-2.81-1.45-4.1-4.95-2.58-7.7,.88-1.6,2.32-2.9,3.52-4.33,.19-.23,.45-.41,.85-.77-3.46-.68-6.66-.61-9.86,.25-3.23,.86-5.97,2.6-8.54,4.67l.02,.02Zm87.17-41.13c.54-1.75-.39-3.48-2.06-3.91-1.08-.28-2.31-.32-3.41-.13-3.18,.54-6.34,1.24-9.5,1.88-1.64,.33-3.29,.65-4.92,1-.89,.19-1.45,.71-1.29,1.69,.17,1.04,.89,1.34,1.85,1.22,.2-.02,.39-.06,.59-.1,4.97-.98,9.94-1.98,14.91-2.94,1.45-.28,3.07-1.04,3.85,1.28Z"/>
      <path class="cls-1" d="M66.88,69.25c-4.66-.62-7.5-3.35-7.89-7.76-.28-3.16,1.05-5.64,3.7-7.43,.4-.27,.79-.79,.86-1.25,.75-5.17,4.39-9.47,9.19-10.75,4.85-1.3,10.11,.56,13.32,4.7,.15,.19,.29,.39,.42,.58,.48,.68,1.09,1,1.83,.44,.73-.56,.57-1.24,.08-1.89-.26-.35-.48-.76-.81-1.03-1.7-1.42-1.42-3.16-.75-4.9,1.19-3.08,3.9-4.44,7.95-4.24,3.79,.19,6.74,2.01,8.88,5.16,.26,.39,.7,.79,1.13,.9,3.03,.79,4.98,2.7,5.76,5.67,.81,3.08-.08,5.76-2.41,7.94-.14,.14-.3,.26-.55,.49,3.55,2.17,5.45,5.27,5.15,9.43-.3,4.14-2.6,6.92-6.47,8.55,1.03,1.39,2.01,2.72,3.06,4.15-1.11,.34-2.05,.66-3.01,.88-.24,.05-.69-.17-.83-.4-2.1-3.52-5.46-4.56-9.26-4.79-1.75-.1-3.52-.13-5.25-.41-3.13-.5-4.78-3.56-3.66-6.52,.07-.19,.22-.37,.22-.55,0-.28-.11-.55-.17-.83-.24,.1-.59,.14-.7,.32-.54,.88-1.01,1.8-1.5,2.71-.09,.16-.14,.35-.26,.65-3.08-3-3.76-6.6-3.11-10.68-1.21,.68-1.7,2.05-2.11,5.45-2.1-1.53-3.22-3.81-4.88-5.59-.13,.05-.26,.09-.4,.14,.05,.45,0,.95,.18,1.35,.74,1.63,1.54,3.23,2.33,4.84,.19,.38,.4,.74,.68,1.23-1.89-.1-3.62-.19-5.35-.29-.06,.13-.13,.27-.19,.4,.35,.25,.68,.59,1.07,.74,1.78,.7,3.57,1.4,5.39,1.98,.97,.31,1.66,.85,2.2,1.7,.62,.97,1.33,1.88,2.03,2.85-1.11,.27-2.16,.5-3.19,.81-.27,.08-.45,.44-.67,.67,.27,.11,.54,.31,.82,.32,4.71,.22,8.28,3.44,9.1,8.29-2.22,.41-4.43,1.01-6.68,1.2-2.43,.2-4.48-.92-6.21-2.62-.33-.32-.84-.61-1.28-.63-5.67-.25-9.55-5.5-8.06-10.98,.08-.3,.16-.61,.26-.98Zm36.17,3.67c-.63-1.59-1.22-3.1-1.83-4.6-1.63-3.97-2.64-8.03-2.12-12.37,.28-2.33,1.07-4.46,2.33-6.56-.51,.03-1.04,.12-1.26,.43-.77,1.1-1.58,2.22-2.08,3.45-.57,1.39-.82,2.9-1.19,4.26-1.08-.45-2.19-.96-3.34-1.38-.26-.1-.62,.09-.94,.15,.2,.25,.38,.52,.61,.73,.81,.74,2.05,1.31,2.37,2.22,.81,2.27,1.2,4.69,1.79,7.18-1.04-.31-1.57-1.47-2.77-.71,.28,.35,.57,.61,.75,.94,.71,1.32,1.48,2.63,2.01,4.02,.24,.62,.46,.88,1.08,1.02,1.47,.34,2.92,.77,4.6,1.22Zm-20.95-19.33c1.16,.81,2.43,1.44,3.36,2.41,.93,.96,1.51,2.24,2.25,3.38,.12,0,.23-.01,.35-.02-.04-.73-.01-1.47-.15-2.19-.36-1.98,0-3.64,1.79-4.81,.14-.09,.22-.26,.59-.72-.83,.13-1.43,.05-1.76,.32-.85,.69-1.59,1.52-2.41,2.34-1.84-1.17-2.84-1.36-4.03-.72Zm-15.49,1.45c.14,.03,.29,.05,.43,.08,.12-.22,.32-.44,.35-.68,.52-3.54,2.53-6.1,5.3-8.19,.27-.2,.44-.53,.66-.79-.1-.11-.2-.22-.3-.34-2.39,.58-4.26,1.96-5.51,4.15-1.03,1.81-1.69,3.71-.94,5.76Z"/>
      <path class="cls-14" d="M50.21,143.74c.19,3.31,.43,7.62,.69,11.92,.03,.47,.14,.96,.32,1.39,.5,1.19,1.35,1.98,2.7,2.05,1.13,.06,2.26-.73,2.61-2.09,.41-1.57,.68-3.21,.79-4.83,.49-6.98,.73-13.96-.11-20.94-.05-.42,.3-1.07,.66-1.34,5.65-4.25,13.32-.98,14.19,5.98,.91,7.23,.71,14.46-.52,21.61-1.3,7.55-7.34,12.86-15.02,13.61-3.81,.37-7.6,.2-11.25-1.04-5.24-1.77-8.01-5.71-9.22-10.9-1.21-5.19-1.18-10.48-.94-15.74,.19-4.31,.67-8.6,.98-12.9,.07-.98,.55-1.53,1.42-1.84,2.88-1.03,5.79-1.19,8.67-.12,2.59,.96,3.96,2.9,4,5.67,.04,2.84,0,5.67,0,9.51Z"/>
      <path class="cls-14" d="M163.79,163.92c-2.31,0-4.51-.03-6.7,.03-.31,0-.78,.37-.89,.67-.51,1.47-.86,2.99-1.39,4.45-.17,.47-.64,1.03-1.09,1.17-1.17,.37-2.39,.68-3.61,.76-3.92,.28-6.82-2.33-7.59-6.63-.62-3.43,0-6.76,.73-10.09,1.75-7.96,3.82-15.82,6.65-23.48,.43-1.17,1.08-1.79,2.28-2.12,3.07-.86,6.18-1.39,9.35-.92,4.95,.74,8.21,3.71,9.76,8.33,1.79,5.33,3.33,10.74,4.78,16.18,1.08,4.04,1.79,8.19,2.76,12.26,.35,1.49-.17,2.59-1.1,3.58-3.2,3.41-10.3,4.79-13.2-2.23-.26-.63-.48-1.27-.74-1.97Zm-3.55-22.11c-.12,.01-.23,.02-.35,.04-.69,3.25-1.38,6.5-2.08,9.81h4.6c-.74-3.34-1.46-6.59-2.17-9.84Z"/>
      <path class="cls-14" d="M124.31,141.16v2.11c1.23,0,2.45-.05,3.67,.01,2.35,.12,4.69,.31,7.04,.47,.74,.05,1.18,.46,1.28,1.18,.22,1.45,.67,2.92,.56,4.35-.26,3.42-2.48,5.4-5.92,5.51-2.15,.06-4.31,.01-6.54,.01v2.51c1.21,0,2.39,0,3.58,0,2.84,0,5.67-.03,8.51,.03,.44,.01,1.08,.35,1.28,.73,2.61,4.92,.78,11.61-6.19,12.09-4.33,.29-8.7,.34-13.04,.13-4.68-.23-6.81-2.39-7.4-7.05-.31-2.49-.49-5.02-.44-7.52,.15-8.66,.44-17.33,.64-25.99,.02-1,.4-1.3,1.34-1.3,8.42,.03,16.84,.04,25.26,.03,.78,0,1.15,.33,1.34,1.05,.67,2.5,.72,4.98-.25,7.41-1.11,2.8-3.31,4.13-6.24,4.23-2.39,.08-4.79,.02-7.19,.03-.39,0-.78,0-1.28,0Z"/>
      <path class="cls-14" d="M15.45,171.35c-4.79-.18-9.31-1.1-13.2-4.07-3.47-2.65-2.8-9.44,1.12-11.38,1.64-.81,3.25-.52,4.82,.3,2.2,1.17,4.48,2.12,7.01,2.23,.67,.03,1.37,0,2.02-.14,1.27-.29,1.96-1.12,1.96-2.24,0-1.25-.78-1.91-1.87-2.17-1.12-.26-2.29-.34-3.43-.52-3.2-.52-6.21-1.54-8.65-3.78-5.96-5.45-4.85-15.7,2.33-19.98,5.71-3.4,11.81-3.42,17.83-.85,3.84,1.64,5.69,5.61,4.64,9.1-.6,2.01-1.84,3.5-3.74,4.45-.58,.29-.93,.19-1.44-.26-2.71-2.42-5.9-3.4-9.51-2.88-.42,.06-.93,.2-1.19,.49-.39,.44-.87,1.08-.81,1.58,.05,.48,.65,1.12,1.15,1.29,1.12,.38,2.33,.49,3.5,.76,3.61,.82,7.13,1.9,9.91,4.5,3.95,3.68,5,8.25,3.61,13.36-1.42,5.19-4.73,8.51-10.14,9.45-1.96,.34-3.95,.51-5.93,.75Z"/>
      <path class="cls-14" d="M187.4,142.7c-2.32-.11-4.54-.24-6.76-.32-.79-.03-1.23-.39-1.5-1.11-1.25-3.38-1.12-6.67,.69-9.8,1.09-1.88,2.8-3.02,4.99-3.05,8.19-.11,16.38-.15,24.56-.17,.33,0,.85,.33,.97,.64,1.38,3.37,1.54,6.76-.17,10.07-1.1,2.12-3,3.13-5.33,3.38-.91,.1-1.82,.16-2.81,.24,0,2.86,.08,5.69-.02,8.51-.18,5.63-.43,11.25-.73,16.87-.03,.57-.48,1.27-.95,1.64-2.08,1.67-5.22,1.61-7.72-.1-2.76-1.89-4.22-4.68-4.49-7.87-.44-5.13-.52-10.28-.73-15.43-.05-1.18,0-2.37,0-3.5Z"/>
      <path class="cls-14" d="M90.73,155.42c4.72,.2,9.3,.38,13.88,.61,1.93,.1,1.95,.17,2.47,2.05,1.49,5.47-2.16,11.71-7.16,12.04-2.94,.2-5.91,.16-8.86,.14-1.91-.01-3.84-.08-5.73-.32-4.86-.61-7.87-3.63-8.49-8.49-1.01-7.91-.99-15.86-.63-23.81,.1-2.27,.37-4.54,.64-6.8,.05-.45,.36-.98,.71-1.27,3.52-2.81,9.1-1.7,11.35,2.21,1.08,1.89,1.51,3.95,1.56,6.09,.12,5.31,.18,10.62,.27,15.93,0,.59,0,1.19,0,1.61Z"/>
      <path class="cls-7" d="M110.31,73.8c2.91-2.48,4.37-5.54,4.38-9.21,.01-2.94-.98-5.54-2.88-7.81-.26-.31-.46-.98-.3-1.29,2.07-4.03,4.72-7.61,8.52-10.18,3.01-2.04,6.32-3.12,9.98-2.38,3.62,.73,6.07,3.06,7.84,6.18,2.16,3.8,2.81,7.99,2.58,12.26-.16,2.8-.81,5.59-1.35,8.36-.08,.42-.72,.93-1.18,1.05-8.13,2.02-16.27,3.97-24.4,5.98-.75,.18-1.21,.09-1.61-.55-.48-.78-1-1.54-1.57-2.4Zm16.65-27.5c-1.84-1.04-5.03,.28-6.97,2.59-1.69,2.01-2.35,4.33-1.34,5.58,1.48-3.99,4.43-6.44,8.32-8.17Z"/>
      <path class="cls-6" d="M67.43,86.47c-2.48,.11-4.79,.24-7.1,.29-.31,0-.81-.36-.9-.66-.71-2.2-2.36-3.11-4.46-3.48-1.93-.34-3.9-.5-5.77-1.04-1.54-.44-3.08-1.13-4.4-2.04-1.33-.91-2.14-2.37-1.53-4.06,.22-.61,.92-1.26,1.53-1.42,.39-.1,1.2,.54,1.49,1.04,1.2,2.07,2.81,3.58,5.16,4.17,2.34,.59,4.05-1.06,3.39-3.39-.28-.97-.95-1.99-1.74-2.6-1.18-.91-2.61-1.49-3.95-2.21-1.47-.79-3.05-1.41-4.39-2.38-1.67-1.22-2.05-2.95-1.11-4.8,.87-1.72,.59-3.22-.28-4.77-5.2-9.19-4.4-18.11,1.3-26.75,.77-1.17,1.86-2.2,3.01-3.01,1.25-.89,2.03-.37,2.3,1.14,.07,.43,.32,1.1,.6,1.16,.42,.09,1.12-.12,1.36-.45,.65-.88,1.18-1.87,1.63-2.87,.56-1.23,.85-2.59,1.51-3.76,.47-.83,1.25-1.58,2.07-2.06,.48-.28,1.52-.18,1.94,.18,.47,.4,.87,1.38,.7,1.93-.36,1.19-.99,2.35-1.72,3.36-2.36,3.27-5.06,6.32-7.2,9.72-3.89,6.19-5.32,12.95-3.51,20.19,.22,.87,.57,1.77,1.09,2.5,.91,1.29,2.48,1.09,2.79-.43,.29-1.43,.22-3.01-.07-4.45-.47-2.35-1.24-4.63-.99-7.07,.05-.43,.04-.96,.28-1.26,.46-.58,1.02-1.26,1.67-1.47,.86-.27,1.62,.31,2.02,1.14,.33,.67,.57,1.39,.89,2.18,.59-1.19,1.07-2.34,1.71-3.39,1.22-2.03,2.73-3.74,5.16-4.37,.82-.21,1.64-.29,2.16,.5,.54,.82,.4,1.7-.18,2.46-.39,.5-.87,.94-1.36,1.35-8.94,7.37-9.94,18.3-2.44,27.16,1.29,1.52,2.69,2.95,3.99,4.47,2.23,2.6,2.98,5.75,3.35,9.26Z"/>
      <path class="cls-12" d="M149.03,31.56c-.18-.82-.48-1.58-.5-2.35-.07-2.5,2.22-4.21,4.63-3.58,.37,.1,.96,.05,1.21-.19,1.83-1.73,3.89-2.33,6.26-1.39,2.2,.87,3.45,2.58,3.69,4.9,.26,2.54-.79,4.5-3,5.82-.14,.08-.27,.16-.56,.34,2.3,.92,3.81,2.42,4.13,4.84,.33,2.45-.65,4.35-2.82,5.85,2.36,.41,4.05,1.49,4.99,3.69-2.85,.95-4.34,3.15-5.49,5.69-.72,1.6-1.55,3.15-2.25,4.76-.51,1.19-1.02,2.26-2.7,1.82-.13-1.9-.46-3.92-.35-5.92,.09-1.66,1.34-2.74,2.82-3.46,.41-.2,.82-.39,1.31-.62-1.13-.84-2.22-.54-4.57,1.08-2.76-4.39-1.81-8.18,2.6-10.49,.27-.14,.43-.47,.64-.71-.35-.07-.74-.27-1.05-.19-1.77,.5-3.29,1.42-4.48,2.84-.2,.24-.39,.49-.64,.8-.93-2.74-.69-5.37,.65-7.73,1.19-2.09,2.82-3.93,4.23-5.9,.28-.39,.44-.88,.65-1.32-.49,.17-1.04,.25-1.45,.53-.75,.52-1.42,1.16-2.09,1.71-.34-.49-.68-.97-1.05-1.5-.21,.22-.32,.29-.31,.33,.43,1.79-.27,3.22-1.25,4.67-.68,1.01-1.05,2.22-1.58,3.39-.84-.56-1.44-1.8-3.21-1.54,2.04,1.8,2.41,4.08,2.87,6.19-1.38-.75-2.81-1.51-4.22-2.32-.29-.17-.48-.51-.72-.76-.82-.87-1.58-1.81-2.5-2.56-.6-.49-.71-.97-.6-1.65,.48-2.98,2.91-5.06,5.93-5.07,.27,0,.54,0,.77,0Z"/>
      <path class="cls-8" d="M141.14,70.17c1.98-9.05,2.22-17.67-3.88-25.31,2.74-2.24,6.98-2.49,10.08-.53,3.38,2.13,5.12,5.42,6.17,9.11,1.26,4.44,1.47,8.96,.76,13.53-.15,.97-.54,1.37-1.57,1.5-3.44,.43-6.87,1-10.3,1.52-.39,.06-.77,.11-1.25,.18Z"/>
      <path class="cls-14" d="M227.8,136.48c-.83,5.11-1.61,10.23-2.51,15.32-.38,2.17-2.18,2.96-4.05,3.38-1.87,.42-3.53-.2-4.58-1.85-.54-.85-.95-1.87-1.1-2.87-.96-6.57-1.38-13.17-.68-19.8,.09-.82,.43-1.3,1.07-1.71,5.13-3.37,11.12-.41,11.48,5.68,.03,.6,0,1.2,0,1.8,.12,.02,.25,.04,.37,.05Z"/>
      <path class="cls-15" d="M121.84,34.13c2.77-.85,5.55-.46,8.02,1.56,1.47-1.13,1.69-2.62,1.5-4.24-.3-2.57-.81-5.13-.15-7.73,.64-2.52,3.02-4.54,5.59-4.66,.69-.03,1.46-.01,1.59,.88,.12,.82-.18,1.45-1.06,1.77-2.72,.99-3.81,2.53-3.64,5.46,.2,3.44,1.3,6.64,3.05,9.61,.2,.33,.71,.63,1.11,.67,2.54,.26,4.46,1.55,6.23,3.65-3.19-.17-5.91,.65-8.14,2.17-1.95-.78-3.69-1.88-5.54-2.12-2.13-.27-3.34-1.08-4.46-2.9-1-1.63-2.74-2.79-4.11-4.12Z"/>
      <path class="cls-14" d="M220.64,156.18c3.73,.01,6.45,2.66,6.48,6.51,.01,1.29-.23,2.63-.62,3.87-.89,2.75-3.59,4.39-6.33,4.02-3.72-.5-5.69-2.3-5.94-5.57-.1-1.3-.1-2.64,.05-3.94,.35-3.01,2.89-4.91,6.37-4.9Z"/>
      <path class="cls-4" d="M104.05,23.62c-.43,.57-1.14,1.13-1.04,1.44,.17,.53,.77,1.04,1.32,1.31,.62,.31,1.37,.35,2.14,.52,.04,.64,.01,1.36,.15,2.04,.32,1.58,1.18,1.9,2.46,.93,.44-.33,.82-.75,1.18-1.07,.88,.43,1.73,.97,2.66,1.25,.58,.18,1.4,.17,1.88-.13,.27-.17,.05-1.11,.05-2.01,1.37,1.68,2.06,3.4,2.33,5.49-4.92,.17-8.85,2.47-12.35,5.71-2.11-2.56-4.58-4.34-7.78-5.02-.29-.06-.64-.57-.7-.91-.77-4.28,2.57-8.92,6.89-9.62,.29-.05,.6,.04,.83,.06Zm-2.63,2.61l-.14-.26c-1.5,.36-2.59,1.27-3.25,2.71-.42,.91-.7,1.86-.15,3.01,.54-1.18,.88-2.21,1.45-3.08,.57-.87,1.39-1.59,2.09-2.37Z"/>
      <path class="cls-11" d="M80.67,19.63c.1-1.76,1.16-2.3,2.77-2.22-.04-.16-.07-.31-.11-.47-.51-.1-1.01-.2-1.53-.3,.13-1.3,.98-2.4,2.53-2.55,1.6-.16,3.26-.08,4.85,.19,.84,.14,1.57,.91,2.35,1.39-.05,.09-.09,.18-.14,.27-.48,.08-.95,.15-1.43,.23-.02,.1-.03,.2-.05,.29,.2,.1,.39,.27,.6,.29,3.04,.29,4.33,1.8,4.09,4.79-.02,.26,.09,.53,.17,.78,.57,1.78-.75,3.75-2.62,3.92-1.08,.1-1.85-.35-2.32-1.32-.4-.82-.88-.87-1.37-.08-.29,.47-.55,.97-.81,1.46-.7,1.33-1.76,1.68-3.34,1.1-1.47-.54-2.16-1.69-1.84-3.05,.13-.53,.25-1.07,.31-1.33-1.28-.43-2.51-.69-3.55-1.27-.51-.29-.84-1.17-.96-1.83-.39-2.2,.96-4.31,3.14-5.05-.2,.83-.31,1.68-.63,2.44-.31,.73-.97,1.35-.12,2.31Zm3.53,1.96c-.25,1.23-.58,2.16-.56,3.08,.01,.53,.49,1.2,.95,1.53,.57,.41,1.38,.6,1.89-.21,.54-.85,1-1.76,1.61-2.85-.55,.05-.92,.09-1.28,.12v-1.57c-.72,.51-1.23,.87-1.65,1.17-.29-.38-.58-.76-.97-1.27Z"/>
      <path class="cls-4" d="M157.7,67.79c.84-1.76,1.59-3.32,2.37-4.95,.63,.42,1.12,.88,1.7,1.09,.39,.14,.91-.07,1.37-.12-.12-.45-.1-1.02-.38-1.31-.51-.53-1.2-.89-1.91-1.39,1.35-2.72,2.66-5.38,4.03-8.15,.93,.63,1.57,1.18,2.31,1.53,.37,.18,.91-.01,1.38-.03-.12-.48-.12-1.05-.4-1.4-.35-.45-.94-.72-1.43-1.07,1.48-1.36,4.21-.86,5.91,1.05,2.02,2.27,1.39,5.64-1.6,8.23-.57-.38-1.12-.86-1.76-1.14-.35-.15-.84,.04-1.27,.08,.08,.46,.02,1.02,.27,1.34,.34,.45,.92,.73,1.52,1.17-1.28,1.39-2.51,2.74-3.74,4.07-.1,.11-.26,.2-.41,.22-2.57,.26-5.14,.51-7.96,.79Z"/>
      <path class="cls-6" d="M112.79,49.29c-.32-4.1-2.21-7.28-6.36-9.05,3.67-3.14,7.46-5.5,12.43-4.67,2.85,.48,5.3,2.57,6.52,5.42-2.56,.56-4.97,1.5-6.98,3.16-1.95,1.61-3.74,3.42-5.61,5.15Z"/>
      <path class="cls-10" d="M75.99,34.03c.16-1.2,.33-2.39,.46-3.58,0-.06-.24-.14-.52-.31-.03,1.28-.42,2.2-1.95,2.13,.04,.13,.09,.26,.13,.39,.37,.11,.75,.23,1.22,.37,.08,1.08-.67,1.84-1.63,2.06-1.95,.46-4,1.26-5.91-.37,.41-.2,.78-.38,1.14-.56,0-.11-.02-.21-.03-.32-.3-.03-.59-.1-.89-.08-2,.15-3.46-1.09-3.65-3.09-.02-.27-.08-.54-.18-.79-.54-1.31-.21-2.55,.88-3.25,1.02-.65,1.65-.5,2.78,.64,.1,.11,.27,.15,.56,.32,.24-.58,.5-1.1,.67-1.64,.49-1.49,1.25-1.97,2.79-1.7,1.47,.25,2.17,1.1,2.11,2.55-.01,.32-.03,.63-.03,.74,1.03,.26,2.05,.37,2.91,.8,.47,.24,.8,.98,.98,1.55,.49,1.61-.3,3.29-1.84,4.12Zm-3.43-5.09c.08-.06,.15-.11,.23-.17,0-.63-.07-1.26,.02-1.87,.14-1-.4-1.36-1.24-1.53-.87-.17-1.22,.3-1.43,1.05-.15,.53-.39,1.04-.56,1.56-.03,.09,.06,.21,.1,.34,.29-.14,.55-.27,.83-.42,.07,.41,.12,.75,.21,1.26,.31-.27,.53-.41,.67-.61,.16-.23,.26-.51,.41-.83,.3,.49,.53,.85,.76,1.22Z"/>
      <path class="cls-3" d="M77.78,9.57c-.13,2.37-.87,2.92-3.19,3.29-1.43,.23-2.85,.92-4.13,1.65-1.65,.94-3.08,2.32-4.78,3.13-1.18,.56-2.66,.55-4.02,.67-.29,.03-.63-.46-.95-.71,.25-.27,.45-.63,.76-.79,2.07-1.06,3.71-2.59,5.14-4.39,.92-1.15,1.75-2.41,2.84-3.37,.99-.87,2.2-1.6,3.43-2.04,2.14-.76,3.31-.25,4.61,1.6,.09,.32,.19,.64,.28,.96Zm-1.93-.98c-1.35-1.01-3.61-.68-5.12,.61-.88,.75-1.06,1.2-.71,1.88,1.51-1.73,3.59-2.18,5.83-2.49Z"/>
      <path class="cls-11" d="M87.23,35.43c-1.91,1.68-2.92,3.7-3.19,5.83-2.69-.79-5.35-1.58-7.95-2.34,1.6-2.72,7.65-4.76,11.14-3.49Z"/>
      <path class="cls-13" d="M113.16,27.05c.22,.71,.44,1.43,.66,2.12-1.47,0-2.01-.36-3.44-2.35-.73,.88-1.48,1.8-2.35,2.85-.88-1.48-.5-2.62-.06-3.76,.06-.12,.12-.24,.18-.36-.17,.02-.34,.05-.51,.07-1.24,.29-2.44,.28-3.63-.48,.92-.43,1.8-.85,2.82-1.33-.67-.33-1.21-.59-1.93-.94,1.85-.45,3.33-.21,4.59,.81,1.18-.77,2.34-1.53,3.49-2.28,.08,.11,.17,.22,.25,.34-.83,.78-1.65,1.56-2.33,2.2,1.24,.95,2.36,1.8,3.48,2.65-.08,.11-.15,.22-.23,.33-.26-.06-.51-.12-.77-.18-.09-.02-.19-.04-.28-.06l.07,.38Z"/>
      <path class="cls-2" d="M87.39,9.24c-.67-.2-1.91-.41-3-.93-2.2-1.05-2.56-3.26-.84-4.99,1.85-1.86,4.22-2.55,6.77-2.36,1.12,.08,2.3,.4,3.29,.91,2.01,1.04,2.28,3.31,.64,4.89-1.75,1.68-3.93,2.33-6.87,2.49Zm2.76-7.73c-2.35,.14-4.17,.52-5.6,1.9-1.15,1.1-1.05,2.42,.16,3.24,2.15,1.46,6.86,.76,8.53-1.25,.93-1.12,.76-2.47-.55-3.11-.91-.44-1.95-.61-2.54-.78Z"/>
      <path class="cls-2" d="M174.44,40.88c.02,2.05-1.57,3.66-3.61,3.66-1.97,0-3.58-1.59-3.6-3.56-.02-2,1.63-3.68,3.62-3.68,1.96,0,3.57,1.61,3.59,3.58Zm-3.57-2.16c-1.21,0-2.2,.98-2.21,2.19,0,1.24,.92,2.19,2.17,2.2,1.26,0,2.19-.91,2.2-2.16,0-1.23-.96-2.22-2.16-2.23Z"/>
      <path class="cls-13" d="M172.66,50.86c-.63-.09-1.25-.17-2.14-.29,.79-1.07,.54-2.69,2.11-2.51,1.35,.15,.79,1.33,.61,2.2,.1,.04,.2,.07,.3,.11,.46-.64,.91-1.29,1.37-1.93,.44-.62,.99-1,1.7-.47,.77,.57,.55,1.23,0,1.84-.87,.98-1.74,1.95-2.85,3.18-.31-.74-.55-1.31-.8-1.88,.12-.21,.24-.43,.37-.64-.08-.05-.17-.1-.25-.15-.14,.19-.29,.37-.43,.56Z"/>
      <path class="cls-9" d="M101.07,5.44c-1.54-.02-2.74-1.22-2.74-2.74C98.32,1.18,99.52,0,101.08,0c1.58,0,2.86,1.26,2.82,2.79-.03,1.49-1.3,2.67-2.84,2.65Zm.07-4.28c-.9-.03-1.64,.66-1.61,1.55,.03,.95,.58,1.46,1.49,1.56,.88,.1,1.66-.61,1.69-1.48,.03-.86-.68-1.61-1.56-1.63Z"/>
      <path class="cls-2" d="M59.82,37.38c0,1.4-1.1,2.51-2.49,2.51-1.35,0-2.52-1.16-2.52-2.51,0-1.35,1.16-2.51,2.52-2.51,1.39,0,2.49,1.1,2.49,2.51Zm-.99,.31c0-.18,0-.36,.01-.54-.47-.36-.9-.92-1.43-1.04-.82-.17-1.37,.43-1.39,1.24-.02,.81,.51,1.43,1.33,1.3,.53-.08,.99-.63,1.47-.96Z"/>
      <path class="cls-9" d="M77.78,9.57c-.09-.32-.19-.64-.28-.96,.96,.04,1.9,.12,2.37,1.31-.7-.12-1.39-.24-2.09-.35Z"/>
      <path class="cls-9" d="M157.74,63.21c-.46,.97-.83,1.74-1.27,2.68q0-2.16,1.27-2.68Z"/>
      <path class="cls-5" d="M138.21,106.58s-.03,.07-.05,.1c-.01,.01-.04,0-.07,0,.05-.02,.09-.05,.14-.07,0,0-.02-.02-.02-.02Z"/>
      <path class="cls-1" d="M97.33,66.55s.05,.06,.05,.08c0,.02-.04,.04-.07,.07-.02-.03-.05-.06-.05-.08,0-.02,.04-.04,.07-.07Z"/>
      <path class="cls-2" d="M84.93,5.25c-.23-1.2,1.41-2.33,4.08-2.65,2.12-.25,3.62,.42,3.68,1.57-1.34-.09-2.73-.4-4.04-.22-1.28,.18-2.5,.85-3.72,1.3Z"/>
    </g>
  </g>
</svg>