<?xml version="1.0" encoding="UTF-8"?>
<svg id="Layer_2" data-name="Layer 2" xmlns="http://www.w3.org/2000/svg" viewBox="0 0 88.16 94.32">
  <g id="Layer_1-2" data-name="Layer 1">
    <g>
      <path d="M43.94,87.79c-1.79,.12-3.36,.31-4.94,.32-8.25,.04-16.39-.87-24.35-3.11-3.43-.96-6.66-2.35-9.7-4.25C.94,78.24-.4,74.55,.1,70.09c1.4-12.37,7.67-21.28,19.03-26.56,1.7-.79,2.95-.3,4.29,.64,3.58,2.49,7.6,3.75,11.91,4.26,5.58,.66,10.76-.69,15.75-3.02,1.15-.54,2.27-1.17,3.35-1.84,.9-.56,1.8-.65,2.73-.23,1.12,.51,2.19,1.12,3.28,1.94-.62,.12-1.23,.28-1.85,.37-1.12,.16-1.63,.83-1.8,1.9-.29,1.76-.63,3.52-.97,5.28-.43,2.19-2.04,3.11-4.16,2.39-1.77-.6-3.54-1.18-5.28-1.86-.94-.36-1.61-.14-2.23,.56-2.35,2.67-4.14,5.67-5.12,9.09-.15,.52,.21,1.41,.63,1.82,1.31,1.28,2.78,2.4,4.16,3.61,1.89,1.66,1.87,3.53-.04,5.16-1.34,1.14-2.67,2.29-4.03,3.4-.82,.67-1.12,1.45-.62,2.41,1.27,2.38,2.56,4.76,3.86,7.12,.22,.4,.55,.74,.95,1.28Z"/>
      <path d="M88.16,64.55c-.23,.3-.48,.79-.87,1.14-1.1,.99-2.24,1.92-3.37,2.87-2.19,1.85-2.19,3.42,.03,5.3,1.06,.91,2.1,1.84,3.21,2.7,.89,.69,1.11,1.43,.7,2.5-1.04,2.75-2.49,5.25-4.38,7.51-.69,.83-1.42,1.01-2.42,.61-1.48-.59-2.99-1.11-4.5-1.61-2.1-.71-3.63,.21-4.03,2.38-.31,1.65-.64,3.29-.91,4.94-.14,.83-.63,1.38-1.4,1.39-3.1,.06-6.2,.06-9.29,0-.92-.02-1.34-.72-1.49-1.61-.29-1.69-.58-3.38-.94-5.06-.39-1.84-1.89-2.71-3.69-2.13-1.63,.52-3.25,1.09-4.85,1.72-.97,.38-1.65,.15-2.31-.62-1.96-2.31-3.44-4.88-4.47-7.72-.31-.87-.15-1.53,.57-2.12,1.3-1.06,2.58-2.14,3.84-3.24,1.63-1.42,1.63-3.16-.02-4.6-1.23-1.08-2.47-2.15-3.75-3.17-.81-.65-.95-1.35-.6-2.31,1.02-2.76,2.47-5.26,4.35-7.52,.72-.87,1.47-1.07,2.52-.65,1.48,.59,2.99,1.1,4.5,1.6,2.01,.67,3.5-.16,3.93-2.22,.34-1.6,.63-3.21,.89-4.82,.16-.99,.62-1.55,1.66-1.73,3.02-.53,6.03-.54,9.04,.02,.91,.17,1.38,.64,1.53,1.56,.26,1.61,.59,3.21,.89,4.82,.41,2.18,1.92,3.06,4.06,2.34,1.55-.53,3.06-1.17,4.63-1.59,.58-.16,1.54-.06,1.92,.33,2.27,2.36,3.84,5.17,4.88,8.28,.05,.15,.07,.31,.16,.71Zm-22.61-.2c-3.8,0-6.87,3.03-6.89,6.81-.02,3.75,3.06,6.88,6.81,6.92,3.83,.04,6.93-3.05,6.92-6.9,0-3.82-3.02-6.83-6.84-6.83Z"/>
      <path d="M38.22,39.27c-10.84-.01-19.55-8.8-19.54-19.7C18.69,8.68,27.48-.03,38.47,0c10.81,.03,19.5,8.84,19.48,19.76-.02,10.82-8.82,19.52-19.73,19.51Z"/>
    </g>
  </g>
</svg>