<?xml version="1.0" encoding="UTF-8"?>
<svg id="Layer_2" data-name="Layer 2" xmlns="http://www.w3.org/2000/svg" viewBox="0 0 147.17 161.01">
  <g id="Layer_1-2" data-name="Layer 1">
    <g>
      <path d="M12.59,161.01C8.39,139.14,4.2,117.3,0,95.38H147.17c-4.2,21.9-8.39,43.75-12.59,65.62H12.59Z"/>
      <path d="M11.08,90.31H1.01c-.01-.28-.03-.52-.03-.76,0-6.04-.07-12.08,.01-18.11,.23-16.44,5.47-31.16,15.68-44.04C25.49,16.25,36.71,8.4,50.16,3.79c4.91-1.69,9.97-2.78,15.14-3.34,5.06-.55,10.12-.61,15.17-.09,14.18,1.46,26.9,6.62,38,15.57,12.43,10.03,20.7,22.8,24.8,38.25,1.48,5.57,2.24,11.24,2.3,16.99,.06,6.14,.02,12.27,.02,18.41,0,.22,0,.44,0,.71h-10.12v-.87c0-5.67,0-11.33,0-17-.04-23.59-13.07-44.84-34.08-55.59-6.31-3.23-12.98-5.29-20-6.2-5.17-.67-10.34-.67-15.53-.07C41.45,13.4,20.67,30.89,13.65,54.55c-1.74,5.87-2.6,11.86-2.57,17.98,.03,5.62,0,11.23,0,16.85,0,.29,0,.58,0,.93Z"/>
      <path d="M44.53,61.17v-13.46h5.34v13.9c.34-.2,.57-.32,.78-.47,10.81-7.19,25.53-1.13,28.1,11.61,.94,4.64,.13,9.03-2.27,13.11-.79,1.35-1.64,2.66-2.43,4.01-.22,.38-.47,.49-.89,.49-17.09,0-34.18,0-51.28-.02-.26,0-.64-.1-.75-.29-1.42-2.41-3.09-4.67-4.09-7.33-4.02-10.75,2.98-22.69,14.33-24.41,4.53-.69,8.73,.18,12.62,2.57,.13,.08,.26,.14,.53,.3Z"/>
      <path d="M84.55,90.31c.19-.5,.34-.93,.52-1.36,4.58-10.88,11.05-20.46,19.81-28.42,3.32-3.02,6.94-5.63,11.22-7.18,1.99-.72,4.01-1.1,6.13-.73,2.21,.38,3.82,1.61,4.87,3.56,1.34,2.49,1.58,5.2,1.42,7.96-.4,6.73-2.64,12.93-5.55,18.93-1.1,2.27-2.41,4.45-3.6,6.68-.24,.44-.51,.63-1.04,.63-11.01-.02-22.01-.01-33.02-.01-.22,0-.43-.02-.76-.04Z"/>
      <path d="M100.06,57.15c-5.24,.02-9.47-4.18-9.49-9.42-.02-5.24,4.19-9.51,9.4-9.53,5.23-.02,9.52,4.21,9.54,9.4,.02,5.29-4.18,9.53-9.45,9.55Z"/>
      <path d="M87.3,57.81c4.53,0,8.19,3.65,8.2,8.18,0,4.54-3.73,8.28-8.23,8.25-4.51-.04-8.16-3.73-8.16-8.24,0-4.53,3.66-8.18,8.19-8.18Z"/>
      <path d="M66.63,43.5c-.9,3.86-2.43,7.31-5.64,9.73-3.16,2.38-6.84,2.93-10.7,2.82,.52-7.58,8.28-13.55,16.34-12.55Z"/>
    </g>
  </g>
</svg>