<?xml version="1.0" encoding="UTF-8"?>
<svg id="Layer_2" data-name="Layer 2" xmlns="http://www.w3.org/2000/svg" viewBox="0 0 76.68 88.19">
  <g id="Layer_1-2" data-name="Layer 1">
    <g>
      <path d="M37.28,88.19c-9.26-.43-18.25-1.28-26.79-4.63-1.84-.72-3.59-1.72-5.31-2.7C1.13,78.56-.33,74.91,.06,70.46c.69-8.05,3.83-14.99,9.63-20.66,2.86-2.8,6.27-4.76,9.86-6.44,1.55-.72,2.69,.01,3.85,.82,3.03,2.1,6.4,3.33,10.01,3.99,7.01,1.29,13.43-.43,19.55-3.72,.49-.26,.98-.53,1.44-.85,.95-.66,1.96-.67,2.95-.19,10.23,5.05,16.79,12.94,18.79,24.35,.22,1.25,.33,2.53,.47,3.79,.46,4.17-1.52,7.12-4.8,9.36-3.35,2.29-7.24,3.25-11.06,4.35-5.86,1.69-11.88,2.26-17.93,2.63-1.91,.12-3.82,.21-5.54,.31Z"/>
      <path d="M38.31,39.27c-10.88,0-19.64-8.74-19.64-19.6C18.67,8.73,27.42,0,38.36,0c10.85,0,19.59,8.78,19.58,19.66,0,10.86-8.76,19.61-19.63,19.61Z"/>
    </g>
  </g>
</svg>